HIERARCHY
ROOT Hips
{
	OFFSET 0.00000 0.00000 0.00000
	CHANNELS 6 Xposition Yposition Zposition Zrotation Yrotation Xrotation 
	JOINT LHipJoint
	{
		OFFSET 0 0 0
		CHANNELS 3 Zrotation Yrotation Xrotation
		JOINT LeftHip
		{
			OFFSET 1.09156 -1.61406 0.76500
			CHANNELS 3 Zrotation Yrotation Xrotation
			JOINT LeftKnee
			{
				OFFSET 2.33750 -6.42225 0.00000
				CHANNELS 3 Zrotation Yrotation Xrotation
				JOINT LeftAnkle
				{
					OFFSET 2.49247 -6.84800 0.00000
					CHANNELS 3 Zrotation Yrotation Xrotation
					JOINT LeftToe
					{
						OFFSET 0.15312 -0.42069 1.45461
						CHANNELS 3 Zrotation Yrotation Xrotation
						End Site
						{
							OFFSET 0.00000 -0.00000 0.77046
						}
					}
				}
			}
		}
	}
	JOINT RHipJoint
	{
		OFFSET 0 0 0
		CHANNELS 3 Zrotation Yrotation Xrotation
		JOINT RightHip
		{
			OFFSET -0.99883 -1.61406 0.76500
			CHANNELS 3 Zrotation Yrotation Xrotation
			JOINT RightKnee
			{
				OFFSET -2.36877 -6.50815 0.00000
				CHANNELS 3 Zrotation Yrotation Xrotation
				JOINT RightAnkle
				{
					OFFSET -2.53452 -6.96353 0.00000
					CHANNELS 3 Zrotation Yrotation Xrotation
					JOINT RightToe
					{
						OFFSET -0.13156 -0.36145 1.63237
						CHANNELS 3 Zrotation Yrotation Xrotation
						End Site
						{
							OFFSET -0.00000 -0.00000 0.84979
						}
					}
				}
			}
		}
	}
	JOINT lowerback
	{
		OFFSET 0 0 0
		CHANNELS 3 Zrotation Yrotation Xrotation
		JOINT Chest
		{
			OFFSET -0.02431 1.98242 -0.13616
			CHANNELS 3 Zrotation Yrotation Xrotation
			JOINT Chest2
			{
				OFFSET 0.03629 1.98974 -0.02954
				CHANNELS 3 Zrotation Yrotation Xrotation
				JOINT lowerneck
				{
					OFFSET 0 0 0
					CHANNELS 3 Zrotation Yrotation Xrotation
					JOINT Neck
					{
						OFFSET 0.09349 1.40783 0.22333
						CHANNELS 3 Zrotation Yrotation Xrotation
						JOINT Head
						{
							OFFSET -0.04273 1.44500 -0.06495
							CHANNELS 3 Zrotation Yrotation Xrotation
							End Site
							{
								OFFSET -0.02251 1.44600 -0.04544
							}
						}
					}
				}
				JOINT LeftCollar
				{
					OFFSET 0 0 0
					CHANNELS 3 Zrotation Yrotation Xrotation
					JOINT LeftShoulder
					{
						OFFSET 3.49137 0.85126 -0.29740
CHANNELS 3 Zrotation Xrotation Yrotation
						JOINT LeftElbow
						{
OFFSET 0 -5.060350 0.000000
CHANNELS 3 Zrotation Xrotation Yrotation
							JOINT LeftWrist
							{
OFFSET 0 -3.147800 0.000000
CHANNELS 3 Zrotation Xrotation Yrotation
								JOINT lhand
								{
									OFFSET 0 0 0
CHANNELS 3 Zrotation Xrotation Yrotation
									JOINT LFingers
									{
OFFSET 0 -0.606750 0.000000
CHANNELS 3 Zrotation Xrotation Yrotation
										End Site
										{
OFFSET 0 -0.489180 0.000000
										}
									}
								}
								JOINT LThumb
								{
OFFSET 0 0.000000 0.000000
CHANNELS 3 Zrotation Xrotation Yrotation
									End Site
									{
OFFSET 0 -0.496640 0.496640
									}
								}
							}
						}
					}
				}
				JOINT RightCollar
				{
					OFFSET 0 0 0
					CHANNELS 3 Zrotation Yrotation Xrotation
					JOINT RightShoulder
					{
						OFFSET -3.28101 0.69707 0.00747
CHANNELS 3 Zrotation Xrotation Yrotation
						JOINT RightElbow
						{
OFFSET 0 -5.122730 -0.000000
CHANNELS 3 Zrotation Xrotation Yrotation
							JOINT RightWrist
							{
OFFSET 0 -3.422000 0.000000
CHANNELS 3 Zrotation Xrotation Yrotation
								JOINT rhand
								{
									OFFSET 0 0 0
CHANNELS 3 Zrotation Xrotation Yrotation
									JOINT RFingers
									{
OFFSET 0 -0.704600 0.000000
CHANNELS 3 Zrotation Xrotation Yrotation
										End Site
										{
OFFSET 0 -0.568070 0.000000
										}
									}
								}
								JOINT RThumb
								{
OFFSET 0 0.000000 0.000000
CHANNELS 3 Zrotation Xrotation Yrotation
									End Site
									{
OFFSET 0 -0.576740 0.576740
									}
								}
							}
						}
					}
				}
			}
		}
	}
}
MOTION
Frames: 6
Frame Time: 0.008333333333333333
-14.556613 14.074116 -6.406287 -22.677848 87.739514 21.674371 0.000000 0.000000 0.000000 6.069643 -16.503867 -91.314079 16.667860 19.731453 80.215489 3.304452 -11.383008 -32.863642 1.409519 7.509283 21.233266 0.000000 0.000000 0.000000 19.011737 10.801054 -43.799838 -7.502190 -15.740613 50.749098 -5.826896 -8.593670 -48.880659 -0.332585 3.705720 -10.250221 -5.663807 1.168215 40.017240 -3.092826 -0.828718 4.414097 -0.124581 0.140874 -14.528128 -1.254194 1.472117 -9.329158 8.602557 2.367122 -3.280027 3.059683 1.426024 0.446823 0.000000 0.000000 0.000000 148.687445 -77.571486 89.854488 7.367691 -12.522820 0.809506 78.268810 120.398606 -52.708657 0.000000 0.000000 0.000000 -7.125000 0.000000 0.000000 161.541756 -68.413588 169.492030 0.000000 0.000000 0.000000 -136.633285 -86.134529 -73.686213 -13.378620 -21.839382 -2.592447 -97.474209 120.655405 46.483080 0.000000 0.000000 0.000000 7.125000 0.000000 0.000000 -26.413710 -64.163328 -35.484860
-14.427065 13.989215 -6.456078 -33.211310 87.914767 10.919966 0.000000 0.000000 0.000000 7.584894 -16.294258 -92.982095 16.286776 19.666151 79.084886 3.257318 -11.238812 -32.619731 1.322160 7.280292 20.549385 0.000000 0.000000 0.000000 19.365418 10.752132 -42.681574 -7.404616 -15.663328 50.388574 -5.946857 -8.567519 -49.324447 -0.249560 3.213990 -8.875143 -5.394100 1.095090 40.047465 -2.991096 -0.755380 4.660146 -0.184614 0.159401 -14.255658 -1.128976 1.477414 -9.304693 8.631511 2.360608 -3.243575 3.045984 1.422614 0.455329 0.000000 0.000000 0.000000 150.214318 -77.332851 92.245108 7.282706 -12.383549 0.791150 78.028031 121.220317 -52.412016 0.000000 0.000000 0.000000 -7.125000 0.000000 0.000000 160.850789 -68.649004 168.985379 0.000000 0.000000 0.000000 -140.327899 -85.920266 -77.735551 -13.321718 -21.756750 -2.571286 -95.507224 118.083322 46.574230 0.000000 0.000000 0.000000 7.125000 0.000000 0.000000 -24.977841 -62.457749 -33.924396
-14.283122 13.959304 -6.497790 -36.067372 87.825111 8.035021 0.000000 0.000000 0.000000 8.548371 -15.931455 -94.156702 15.885798 19.588891 77.891102 3.287125 -11.068604 -32.773929 1.433593 7.568561 21.412114 0.000000 0.000000 0.000000 19.367454 10.964028 -41.696631 -7.249395 -15.538211 49.811089 -5.785762 -9.989069 -49.302119 -0.317503 3.620724 -10.012178 -5.565166 1.176247 39.991475 -2.972485 -0.708739 4.740450 -0.095249 0.186784 -14.135777 -0.979396 1.562980 -9.375311 8.660120 2.431691 -2.897852 3.036137 1.466035 0.575825 0.000000 0.000000 0.000000 151.135565 -77.180712 93.491892 7.157553 -12.178275 0.764547 77.967255 121.713605 -52.317347 0.000000 0.000000 0.000000 -7.125000 0.000000 0.000000 160.629817 -68.713002 168.824801 0.000000 0.000000 0.000000 -140.598092 -85.826482 -77.784979 -13.373658 -21.832248 -2.590645 -96.395769 119.172633 46.238253 0.000000 0.000000 0.000000 7.125000 0.000000 0.000000 -26.051402 -63.192516 -35.227650
-14.133078 13.965642 -6.544788 -47.336015 87.987747 -3.361465 0.000000 0.000000 0.000000 9.460982 -15.782345 -94.923865 15.365496 19.476490 76.334815 3.273666 -10.188574 -32.715975 1.523265 7.793144 22.087428 0.000000 0.000000 0.000000 19.740230 10.851794 -40.327992 -6.949944 -15.289184 48.683983 -5.743035 -10.362636 -49.300838 -0.299104 3.514659 -9.715235 -5.294576 1.023828 40.063554 -2.827408 -0.745764 4.870554 -0.059606 0.160249 -14.012211 -1.015493 1.597657 -9.437736 8.700425 2.457528 -2.641835 3.062421 1.485590 0.667210 0.000000 0.000000 0.000000 152.189787 -76.843717 95.178634 6.933287 -11.809361 0.717968 79.222164 124.407602 -52.969435 0.000000 0.000000 0.000000 -7.125000 0.000000 0.000000 162.343639 -67.688460 170.248151 0.000000 0.000000 0.000000 -144.550522 -85.601250 -81.467748 -13.181222 -21.552206 -2.519482 -96.975902 119.565133 46.286724 0.000000 0.000000 0.000000 7.125000 0.000000 0.000000 -26.370404 -63.706512 -35.540123
-13.986776 13.959013 -6.593163 -57.619155 88.075567 -13.488329 0.000000 0.000000 0.000000 10.326406 -15.597212 -95.925039 14.850597 19.351702 74.786097 3.245089 -9.160565 -32.602277 1.556399 7.872953 22.329112 0.000000 0.000000 0.000000 20.041948 10.826371 -39.194613 -6.649977 -15.029721 47.537293 -5.740970 -10.385169 -49.303068 -0.236957 3.132610 -8.648146 -5.177294 0.902531 39.626801 -2.633756 -0.771967 5.034412 0.110466 0.137217 -13.667646 -1.208647 1.688539 -9.562778 8.713014 2.569447 -2.329460 3.114033 1.550966 0.782241 0.000000 0.000000 0.000000 152.556144 -76.591409 96.843813 6.827117 -11.634334 0.696412 79.907560 126.786679 -52.675961 0.000000 0.000000 0.000000 -7.125000 0.000000 0.000000 161.970953 -67.262044 170.208755 0.000000 0.000000 0.000000 -148.348916 -85.401939 -85.134944 -13.162859 -21.525373 -2.512747 -97.028238 119.321096 46.595513 0.000000 0.000000 0.000000 7.125000 0.000000 0.000000 -25.938409 -63.786078 -34.931340
-13.842952 13.944251 -6.634739 -70.254511 87.787752 -25.769934 0.000000 0.000000 0.000000 11.202869 -15.016120 -97.052983 14.388915 19.227787 73.388673 3.206749 -8.815128 -32.418095 1.642902 8.078817 22.953774 0.000000 0.000000 0.000000 20.589095 11.011085 -38.358953 -6.368179 -14.775871 46.441993 -5.506133 -11.564240 -48.948743 -0.240264 3.154499 -8.709190 -5.169264 0.939165 38.876896 -2.322163 -0.631341 5.141298 0.395373 0.184463 -13.279479 -1.250048 1.766539 -9.573037 8.641464 2.653801 -2.082042 3.104216 1.595249 0.859506 0.000000 0.000000 0.000000 153.321596 -76.307094 98.717723 6.582440 -11.230010 0.647815 76.448773 123.643038 -52.014630 0.000000 0.000000 0.000000 -7.125000 0.000000 0.000000 159.468787 -69.857762 167.615415 0.000000 0.000000 0.000000 -151.434730 -85.392909 -88.081114 -13.234588 -21.629983 -2.539096 -95.186200 116.494344 46.254133 0.000000 0.000000 0.000000 7.125000 0.000000 0.000000 -25.217656 -62.127521 -34.329577
